<svg width="167" height="45" fill="none" xmlns="http://www.w3.org/2000/svg"><g clip-path="url(#a)"><path d="M22.631 44.576c12.5 0 22.632-9.883 22.632-22.075S35.13.426 22.63.426C10.132.426 0 10.31 0 22.501s10.132 22.075 22.631 22.075Z" fill="#101636"/><mask id="b" style="mask-type:luminance" maskUnits="userSpaceOnUse" x="11" y="11" width="23" height="23"><path d="M11.316 11.463h22.63v22.074h-22.63V11.463Z" fill="#fff"/></mask><g mask="url(#b)"><path fill-rule="evenodd" clip-rule="evenodd" d="M22.408 13.197c-.077-.86.578-1.669 1.572-1.73.742-.05 1.333.282 1.711.92.184.314.372.626.56.94.296.498.594.996.886 1.5.11.184.223.365.336.547.226.362.452.724.646 1.109.553 1.09-.114 2.293-1.359 2.453-.705.097-1.396-.27-1.799-.933-.258-.43-.512-.862-.767-1.293-.255-.433-.51-.865-.768-1.295-.12-.201-.242-.4-.364-.6-.124-.2-.246-.4-.365-.602-.189-.318-.353-.65-.302-1.005l.013-.011Zm3.698 9.234c.075 1.704-1.435 3.238-3.246 3.31-1.786.075-3.421-1.41-3.459-3.187a3.25 3.25 0 0 1 .95-2.322 3.416 3.416 0 0 1 2.347-1.002c1.786-.061 3.346 1.398 3.408 3.2ZM19.565 32.61c.352.588.855.932 1.522.92l.013.012c.78.024 1.396-.368 1.673-1.018.264-.589.138-1.14-.164-1.67-.442-.753-.89-1.504-1.345-2.25l-.277-.458-.221-.37a27.975 27.975 0 0 0-.572-.943c-.403-.601-1.145-.87-1.874-.711-.718.16-1.221.7-1.334 1.422-.076.467.063.87.302 1.264l.608 1.02c.553.927 1.108 1.858 1.669 2.782Zm10.24-7.776c-1.297.074-2.152-1.349-1.573-2.379.41-.747.841-1.481 1.272-2.216.163-.279.327-.558.489-.838.214-.38.428-.76.655-1.128.415-.7 1.12-1.018 1.886-.859.768.16 1.347.736 1.41 1.52.024.32-.063.688-.214.958a200.487 200.487 0 0 1-2.441 4.169c-.327.54-.843.797-1.485.785v-.012Zm-18.254.221c-.667 1.177.164 2.575 1.522 2.575l-.013-.012c.667 0 1.208-.307 1.56-.908.771-1.3 1.534-2.603 2.29-3.911.151-.258.264-.553.29-.847a1.603 1.603 0 0 0-.258-1.042 1.67 1.67 0 0 0-.862-.663c-.793-.269-1.598-.024-2.063.65-.202.301-.39.622-.574.94l-.168.286-.465.787c-.423.715-.844 1.427-1.259 2.145Zm16.29 1.68c.281 0 .563-.002.845-.005.566-.01 1.131-.007 1.697.005.906.037 1.547.748 1.585 1.656.025.87-.566 1.558-1.46 1.68l-.11.014c-.08.013-.16.021-.241.023H25.35c-.465 0-.893-.134-1.22-.479-.504-.527-.63-1.152-.366-1.815.265-.662.793-1.054 1.535-1.079.566-.012 1.131-.014 1.696-.005.284.003.565.005.846.005Zm-14.479-9.737c.177.735.793 1.263 1.573 1.276v.011c.359.006 1.164.002 2.029-.003 1.141-.005 2.383-.01 2.827.003.705.025 1.208-.269 1.585-.82.68-.982.05-2.38-1.157-2.54-.377-.049-3.913-.049-5.284 0-1.131.036-1.824.994-1.573 2.073Z" fill="#3A6EF2"/></g><path d="M52.052 22.78c0-4.366 3.147-8.212 7.903-8.212 3.06 0 5.94 1.664 6.854 4.604l-3.214.777c-.693-1.491-1.966-2.42-3.685-2.42-2.88 0-4.42 2.658-4.42 5.209 0 2.572 1.495 5.078 4.465 5.078 1.741 0 3.081-.907 3.796-2.42l3.215.778c-1.005 2.983-3.817 4.604-7.01 4.604-4.645 0-7.904-3.48-7.904-7.997Zm16.86 7.565V14.222h3.126v16.123h-3.125Zm5.18-5.705c0-3.394 2.634-6.03 6.206-6.03 3.505 0 6.117 2.55 6.117 6.008 0 3.415-2.59 6.051-6.206 6.051-3.505 0-6.117-2.592-6.117-6.03Zm6.162-3.307c-1.853 0-2.97 1.6-2.97 3.307 0 1.664 1.094 3.306 2.97 3.306 1.852 0 2.97-1.6 2.97-3.306 0-1.687-1.073-3.307-2.97-3.307Zm8.216-2.4h3.126v6.377c0 1.362.647 2.637 2.233 2.637 1.584 0 2.232-1.275 2.232-2.638v-6.376h3.126v6.311c0 3.113-1.987 5.425-5.403 5.425-3.304 0-5.314-2.204-5.314-5.425v-6.311Zm18.169 11.736c-3.304 0-5.403-2.917-5.403-5.965 0-3.09 2.121-6.095 5.582-6.095 1.429 0 2.612.497 3.505 1.6V14.22h3.126v16.124h-2.88l-.089-1.664c-.871 1.276-2.256 1.988-3.841 1.988Zm-2.21-6.03c0 1.665 1.094 3.308 2.97 3.308 1.853 0 2.968-1.6 2.968-3.307 0-1.687-1.071-3.307-2.968-3.307-1.854 0-2.97 1.6-2.97 3.307Zm11.714 5.706V15h5.09c3.394 0 6.23 1.491 6.23 5.187 0 3.393-2.925 5.144-6.252 5.144-.558 0-1.138-.043-1.786-.151v5.165h-3.282Zm3.282-12.622v4.755c.547.083 1.099.126 1.652.13 1.675 0 3.014-.67 3.014-2.442 0-1.752-1.273-2.443-2.925-2.443h-1.741Zm9.218 6.894c0-3.241 2.344-6.008 5.871-6.008 3.595 0 5.761 2.572 5.761 6.03v.757h-8.462c.246 1.512 1.183 2.724 2.88 2.724 1.116 0 1.964-.52 2.546-1.427l2.79.864c-.849 2.054-3.148 3.113-5.358 3.113-3.55 0-6.028-2.595-6.028-6.053Zm5.871-3.674c-1.495 0-2.388 1.081-2.657 2.421h5.202c-.2-1.34-1.049-2.42-2.545-2.42Zm11.34 9.726c-2.144 0-4.198-1.296-4.198-3.566 0-2.55 2.501-3.652 4.845-3.652.983 0 1.764.173 2.68.497v-.67c0-1.275-.76-2.183-2.121-2.183-.96 0-1.854.454-2.188 1.362l-2.792-.541c.514-2.183 2.859-3.307 5.024-3.307 2.947 0 5.113 1.837 5.113 4.82v6.917h-2.791l-.089-1.34c-.715 1.145-2.144 1.663-3.483 1.663Zm-1.117-3.716c0 .972 1.005 1.383 1.876 1.383 1.362 0 2.568-.908 2.568-2.313v-.108a7.41 7.41 0 0 0-1.05-.324 6.51 6.51 0 0 0-1.116-.108c-.961 0-2.278.323-2.278 1.47Zm9.97-12.73h3.059v9.357l4.377-4.647h3.661l-4.912 5.058 5.447 6.354h-3.951l-4.622-5.684v5.684h-3.059V14.222Z" fill="#fff"/></g><defs><clipPath id="a"><path fill="#fff" d="M0 0h167v45H0z"/></clipPath></defs></svg>